<svg class="logo absolute z-0 text-primary svelte-11btov3" viewBox="0 0 1104 143" version="1.1"
  xmlns="http://www.w3.org/2000/svg" xmlns:xlink="http://www.w3.org/1999/xlink" xml:space="preserve" fill="currentColor"
  width="100%" height="100%" style="fill-rule:evenodd;clip-rule:evenodd;stroke-linejoin:round;stroke-miterlimit:2;">
  <defs>
    <filter id="spinner-gF01">
      <feGaussianBlur in="SourceGraphic" stdDeviation="1" result="y"></feGaussianBlur>
      <feColorMatrix in="y" mode="matrix" values="1 0 0 0 0 0 1 0 0 0 0 0 1 0 0 0 0 0 18 -7" result="z"></feColorMatrix>
      <feBlend in="SourceGraphic" in2="z"></feBlend>
    </filter>
  </defs>
  <g transform="translate(1067 -50) scale(10.0833)" class="hidden">
    <g filter="url(#spinner-gF01)">
      <circle cx="5" cy="12" r="1">
        <animate attributeName="cx" calcMode="spline" dur="2s" values="7;11;7"
          keySplines=".36,.62,.43,.99;.79,0,.58,.57" repeatCount="indefinite"></animate>
      </circle>
      <circle cx="19" cy="12" r="1">
        <animate attributeName="cx" calcMode="spline" dur="2s" values="17;13;17"
          keySplines=".36,.62,.43,.99;.79,0,.58,.57" repeatCount="indefinite"></animate>
      </circle>
      <animateTransform attributeName="transform" type="rotate" dur="0.75s" values="0 12 12;360 12 12"
        repeatCount="indefinite"></animateTransform>
    </g>
  </g>
  <g>
    <path class="translate-x-[-176px] md:translate-x-0"
      d="M725.894,73.912L727.752,72.054C727.752,105.08 700.904,131.865 667.878,131.865C652.666,131.865 638.233,126.145 627.117,115.809L627.114,115.806C616.808,106.187 610.283,93.207 608.52,79.518L600.98,79.518C599.954,79.518 599.122,78.686 599.122,77.66L599.122,66.322C599.122,65.296 599.954,64.464 600.98,64.464L608.52,64.464C610.282,50.778 616.805,37.797 627.11,28.117L627.117,28.11C638.233,17.774 652.731,12.117 667.878,12.117C693.879,12.117 716.44,28.661 724.559,52.904C729.287,49.28 735.855,46.952 742.083,46.952C748.312,46.952 754.88,49.28 759.607,52.905C767.727,28.661 790.287,12.117 816.289,12.117C831.501,12.117 845.933,17.837 857.05,28.173L857.053,28.176C867.343,37.78 873.864,50.736 875.639,64.401L883.187,64.401C884.213,64.401 885.045,65.233 885.045,66.259L885.045,77.597C885.045,78.623 884.213,79.455 883.187,79.455L875.647,79.455C873.884,93.147 867.359,106.187 857.054,115.805C845.936,126.208 831.437,131.865 816.289,131.865C783.263,131.865 756.415,105.08 756.415,72.054L758.272,73.912L758.301,73.883C758.301,73.883 758.301,73.883 758.301,73.882L758.272,73.912L756.415,72.053L756.415,71.993L758.272,73.849L756.415,71.991C756.415,69.89 755.387,67.658 753.734,65.71C751.107,62.615 746.87,60.242 742.083,60.242C737.297,60.242 733.06,62.615 730.433,65.71C728.779,67.658 727.752,69.89 727.752,71.991L725.894,73.849L727.752,71.993L725.894,73.912ZM816.289,118.638C842.035,118.638 862.935,97.737 862.935,71.991C862.935,46.305 842.035,25.345 816.289,25.345C790.603,25.345 769.642,46.245 769.642,71.991C769.642,97.677 790.542,118.638 816.289,118.638ZM667.878,118.638C693.624,118.638 714.525,97.737 714.525,71.991C714.525,46.305 693.624,25.345 667.878,25.345C642.192,25.345 621.232,46.245 621.232,71.991C621.232,97.677 642.132,118.638 667.878,118.638Z">
    </path>
    <g class="hidden md:block">
      <path
        d="M14.393,120.002C14.393,124.053 17.394,127.054 21.445,127.054C25.497,127.054 28.498,124.053 28.498,120.002L28.498,40.176L92.868,122.403C94.819,125.254 96.77,126.904 100.221,126.904L100.971,126.904C104.722,126.904 107.723,123.753 107.723,120.002L107.723,23.371C107.723,19.319 104.722,16.318 100.671,16.318C96.62,16.318 93.469,19.319 93.469,23.371L93.469,101.246L30.748,20.82C28.798,18.269 26.847,16.469 23.396,16.469L21.595,16.469C17.544,16.469 14.393,19.77 14.393,23.821L14.393,120.002Z"
        style="fill-rule:nonzero;"></path>
      <path
        d="M215.308,126.304C218.909,126.304 221.76,123.453 221.76,119.852C221.76,116.251 218.909,113.25 215.308,113.25L155.139,113.25L155.139,77.838L207.506,77.838C211.107,77.838 213.958,74.837 213.958,71.236C213.958,67.635 211.107,64.784 207.506,64.784L155.139,64.784L155.139,30.123L214.558,30.123C218.009,30.123 221.01,27.272 221.01,23.671C221.01,20.07 218.009,17.069 214.558,17.069L147.936,17.069C143.885,17.069 140.734,20.22 140.734,24.271L140.734,119.102C140.734,123.153 143.885,126.304 147.936,126.304L215.308,126.304Z"
        style="fill-rule:nonzero;"></path>
      <path
        d="M248.319,119.852C248.319,123.903 251.47,127.054 255.521,127.054C259.573,127.054 262.724,123.903 262.724,119.852L262.724,85.191L291.833,85.191L321.393,123.303C323.043,125.554 325.144,127.054 328.295,127.054C331.896,127.054 335.347,124.204 335.347,120.152C335.347,117.901 334.447,116.401 333.096,114.75L307.738,82.49C324.094,78.889 335.647,68.235 335.647,50.38L335.647,50.079C335.647,41.227 332.496,33.424 326.944,28.022C320.192,20.97 309.539,17.069 295.734,17.069L255.521,17.069C251.47,17.069 248.319,20.22 248.319,24.271L248.319,119.852ZM262.724,72.287L262.724,30.273L294.684,30.273C311.489,30.273 321.093,37.775 321.093,50.83L321.093,51.13C321.093,64.184 310.289,72.287 294.684,72.287L262.724,72.287Z"
        style="fill-rule:nonzero;"></path>
      <path
        d="M364.157,119.102C364.157,123.153 367.308,126.304 371.359,126.304L403.019,126.304C437.23,126.304 461.088,102.446 461.088,71.686L461.088,71.386C461.088,40.626 437.23,17.069 403.019,17.069L371.359,17.069C367.308,17.069 364.157,20.22 364.157,24.271L364.157,119.102ZM378.561,113.1L378.561,30.273L403.019,30.273C429.128,30.273 445.933,48.429 445.933,71.686L445.933,71.987C445.933,95.394 429.128,113.1 403.019,113.1L378.561,113.1Z"
        style="fill-rule:nonzero;"></path>
      <path
        d="M489.147,119.102C489.147,123.153 492.298,126.304 496.349,126.304L538.363,126.304C562.371,126.304 578.276,115.201 578.276,96.445L578.276,96.144C578.276,81.29 568.073,73.787 555.319,69.736C563.721,65.685 572.124,58.782 572.124,44.828L572.124,44.528C572.124,37.325 569.573,31.473 564.922,26.672C558.77,20.67 549.017,17.069 536.413,17.069L496.349,17.069C492.298,17.069 489.147,20.22 489.147,24.271L489.147,119.102ZM503.402,64.934L503.402,29.973L534.912,29.973C549.467,29.973 557.569,36.425 557.569,46.628L557.569,46.928C557.569,58.932 548.116,64.934 533.862,64.934L503.402,64.934ZM503.402,113.4L503.402,77.388L536.713,77.388C554.718,77.388 563.721,83.99 563.721,94.944L563.721,95.244C563.721,106.798 554.118,113.4 538.513,113.4L503.402,113.4Z"
        style="fill-rule:nonzero;"></path>
      <path
        d="M905.532,119.852C905.532,123.903 908.683,127.054 912.735,127.054C916.786,127.054 919.937,123.903 919.937,119.852L919.937,96.445L941.844,74.837L980.707,123.753C982.357,125.704 983.858,127.054 986.709,127.054C990.76,127.054 994.061,123.903 994.061,119.852C994.061,117.601 993.311,116.401 991.96,114.75L951.897,65.234L989.26,28.472C990.91,26.822 991.66,25.171 991.66,23.221C991.66,19.62 988.959,16.318 984.908,16.318C982.357,16.318 980.707,17.219 979.056,18.869L919.937,79.189L919.937,23.521C919.937,19.47 916.786,16.318 912.735,16.318C908.683,16.318 905.532,19.47 905.532,23.521L905.532,119.852Z"
        style="fill-rule:nonzero;"></path>
      <path
        d="M1056.33,127.805C1078.54,127.805 1094.14,115.651 1094.14,96.445L1094.14,96.144C1094.14,78.889 1082.74,70.336 1058.73,64.934C1035.47,59.683 1030.22,54.881 1030.22,44.828L1030.22,44.528C1030.22,35.675 1038.48,28.472 1051.83,28.472C1061.43,28.472 1070.14,31.023 1079.14,37.475C1080.34,38.376 1081.69,38.826 1083.19,38.826C1086.94,38.826 1090.09,35.675 1090.09,31.924C1090.09,29.073 1088.59,27.122 1086.94,26.072C1076.89,19.019 1066.38,15.568 1052.13,15.568C1031.12,15.568 1015.82,28.322 1015.82,45.878L1015.82,46.178C1015.82,64.634 1027.82,72.887 1052.43,77.989C1074.64,82.79 1079.74,88.342 1079.74,97.495L1079.74,97.795C1079.74,107.998 1070.59,114.901 1056.78,114.901C1043.58,114.901 1033.37,110.999 1023.62,102.597C1022.57,101.846 1021.07,101.096 1019.27,101.096C1015.22,101.096 1012.37,103.947 1012.37,107.998C1012.37,110.249 1013.42,112.35 1015.07,113.4C1027.37,123.003 1041.18,127.805 1056.33,127.805Z"
        style="fill-rule:nonzero;"></path>
    </g>
  </g>
</svg>