<svg width="100%" height="100%" viewBox="0 0 381 180" version="1.1" xmlns="http://www.w3.org/2000/svg"
    xmlns:xlink="http://www.w3.org/1999/xlink" xml:space="preserve" xmlns:serif="http://www.serif.com/"
    style="fill-rule:evenodd;clip-rule:evenodd;stroke-linejoin:round;stroke-miterlimit:2;">
    <g transform="matrix(1,0,0,1,-46.5001,-101.116)">
        <path
            d="M166.082,278.457L166.082,101.116L271.418,101.116L271.418,278.457L166.082,278.457ZM236.306,136.584L201.194,136.584L201.194,242.989L236.306,242.989L236.306,136.584ZM151.836,101.116L151.836,136.584L116.724,136.584L116.724,278.457L81.612,278.457L81.612,136.584L46.5,136.584L46.5,101.116L151.836,101.116ZM285.461,278.457L285.461,137.529L303.373,137.529L303.373,102.06L425.909,102.06L425.909,279.402L390.797,279.402L390.797,137.529L373.241,137.529L373.241,278.457L338.129,278.457L338.129,137.529L320.573,137.529L320.573,278.457L285.461,278.457Z" />
    </g>
</svg>